<svg width="88" height="44" viewBox="0 0 88 44" fill="none" xmlns="http://www.w3.org/2000/svg">
<g clip-path="url(#clip0_42_355)">
<path fill-rule="evenodd" clip-rule="evenodd" d="M27.9831 26.6515C33.7805 21.5602 42.0742 18.809 49.7406 19.2548C54.4801 19.5305 58.4459 20.8308 61.6002 23.2333C64.7554 25.6364 67.059 29.1122 68.525 33.67C68.5693 33.8076 68.9763 35.1749 69.1566 36.5448C69.2459 37.2231 69.2866 37.95 69.1749 38.5387C69.1468 38.6868 69.1072 38.8362 69.0512 38.979C68.9955 39.121 68.9234 39.2565 68.83 39.378C68.7569 39.4731 68.6724 39.557 68.5771 39.6271C68.4133 39.7476 68.2174 39.8271 67.9919 39.8521C67.7175 39.8826 67.4703 39.6849 67.4398 39.4104C67.4093 39.136 67.6071 38.8888 67.8815 38.8583C67.9504 38.8506 67.9931 38.8259 68.0372 38.7685C68.0929 38.6961 68.152 38.5652 68.1924 38.3522C68.2737 37.9242 68.2508 37.3258 68.1652 36.6753C67.9957 35.3877 67.6076 34.0835 67.5731 33.9762C66.1563 29.5715 63.9552 26.284 60.9943 24.0288C58.0325 21.773 54.271 20.52 49.6825 20.2532C42.2705 19.8221 34.2368 22.4904 28.643 27.4029C28.6127 27.4295 28.5842 27.4549 28.5573 27.4791C28.5814 27.4848 28.606 27.4907 28.6309 27.4969C28.8988 27.5639 29.0617 27.8354 28.9947 28.1033C28.9277 28.3712 28.6563 28.5341 28.3884 28.4671C28.3079 28.447 28.2298 28.4301 28.1514 28.4135C28.142 28.4116 28.1326 28.4096 28.123 28.4075C28.0561 28.3935 27.9846 28.3784 27.9201 28.3627C27.848 28.3451 27.7601 28.3209 27.6765 28.2848C27.5986 28.2511 27.4712 28.1849 27.3745 28.0537C27.26 27.8982 27.2349 27.7163 27.2693 27.5535C27.2987 27.4145 27.3681 27.3004 27.4272 27.2185C27.5465 27.0533 27.7387 26.8662 27.9831 26.6515Z" fill="black"/>
<path fill-rule="evenodd" clip-rule="evenodd" d="M38.5297 7.84601C48.3094 2.38191 59.8349 1.18889 70.3148 5.43208C79.7488 9.25183 85.0311 17.8691 87.3775 27.3849C87.5448 28.0635 87.6448 28.7882 87.6448 29.4984C87.6448 29.7746 87.4209 29.9984 87.1448 29.9984C86.8687 29.9984 86.6448 29.7746 86.6448 29.4984C86.6448 28.879 86.5572 28.2351 86.4066 27.6243C84.105 18.2903 78.9709 10.0157 69.9395 6.35899C59.7683 2.24079 48.5598 3.38753 39.0175 8.719C35.8559 10.4854 33.0241 12.7644 30.4005 15.2845C30.2892 15.3915 30.1612 15.5096 30.0458 15.6162C29.9636 15.6921 29.8877 15.7622 29.8285 15.8183C29.6614 15.9768 29.5348 16.1084 29.4401 16.2353C29.273 16.4591 29.196 16.6746 29.2556 17.0321C29.301 17.3045 29.117 17.5621 28.8446 17.6075C28.5722 17.6529 28.3146 17.4689 28.2692 17.1965C28.1612 16.5489 28.3221 16.0612 28.6387 15.6371C28.7858 15.44 28.9626 15.2614 29.1403 15.0928C29.231 15.0068 29.3106 14.9335 29.3904 14.8601C29.4889 14.7695 29.5876 14.6787 29.7078 14.5633C32.3717 12.0046 35.2716 9.66637 38.5297 7.84601Z" fill="black"/>
<path fill-rule="evenodd" clip-rule="evenodd" d="M26.0143 5.09748C26.1428 6.03455 26.2559 6.97727 26.3691 7.91998C26.7251 10.8862 27.0812 13.8523 27.9155 16.6418C27.9757 16.6627 28.033 16.6956 28.0836 16.7406C28.29 16.9241 28.3086 17.2401 28.1251 17.4465C28.0573 17.5228 28.0108 17.583 27.98 17.627C27.9795 17.6287 27.979 17.6304 27.9786 17.632C27.9611 17.6955 27.9292 17.7879 27.8677 17.8714C27.8512 17.8938 27.8197 17.9334 27.7713 17.9721C27.7465 17.992 27.7075 18.0195 27.6548 18.0424C27.6024 18.0651 27.5201 18.09 27.4182 18.0827C27.3085 18.0749 27.205 18.0313 27.123 17.9596C27.0469 17.8931 27.007 17.8182 26.9863 17.7661C26.948 17.67 26.9492 17.5865 26.9503 17.5552C26.9531 17.4815 26.9708 17.4212 26.9809 17.3901C26.9924 17.3546 27.0065 17.3204 27.0215 17.2884C27.0218 17.2197 27.0111 17.1073 26.9636 16.9491C26.0978 14.063 25.7268 10.9691 25.3681 7.9773C25.2568 7.04977 25.1468 6.13205 25.0235 5.23335C25.0214 5.21795 25.0153 5.16912 25.0058 5.09311C24.951 4.65462 24.7829 3.31135 24.6158 2.26039C24.6117 2.23471 24.6077 2.20924 24.6036 2.18401C24.3829 2.13207 24.2186 1.93387 24.2186 1.69729C24.2186 1.307 24.2297 1.02237 24.259 0.849675C24.2666 0.805111 24.2789 0.744956 24.302 0.684133C24.3136 0.653535 24.3335 0.6073 24.3672 0.558251C24.3989 0.511985 24.4639 0.43216 24.5762 0.378913C24.7054 0.317674 24.8475 0.31535 24.971 0.359741C25.0775 0.398053 25.1458 0.461736 25.1799 0.498372C25.2458 0.56912 25.2815 0.645447 25.2966 0.679161C25.3598 0.820356 25.4117 1.04623 25.4555 1.26237C25.5034 1.49905 25.5537 1.79064 25.6034 2.10335C25.703 2.72967 25.803 3.45867 25.8793 4.03996C25.9176 4.33107 25.95 4.586 25.9736 4.77363L26.0105 5.06835L26.0131 5.08887L26.014 5.0951L26.0143 5.09748ZM27.9275 17.7116C27.9274 17.7119 27.9276 17.7113 27.9275 17.7116C27.922 17.7232 27.9232 17.7229 27.9275 17.7116Z" fill="black"/>
<path fill-rule="evenodd" clip-rule="evenodd" d="M29.4927 26.9122C29.4107 26.9536 29.3163 26.9729 29.2181 26.9631C28.9433 26.9356 28.7429 26.6906 28.7703 26.4158C28.7953 26.1663 28.9105 25.5943 29.0418 25.2131C29.075 25.1164 29.1163 25.0113 29.1664 24.9203C29.1911 24.8754 29.2271 24.817 29.2771 24.7615C29.3204 24.7135 29.4193 24.6164 29.5784 24.5795C29.7765 24.5335 29.953 24.6047 30.0673 24.7081C30.1608 24.7928 30.2081 24.8921 30.2317 24.9499C30.2813 25.0713 30.3079 25.2191 30.3258 25.3662C30.673 28.2208 30.8483 31.0962 31.0225 33.9544C31.0874 35.0188 31.1521 36.0808 31.2255 37.1384C31.2265 37.1441 31.2287 37.1576 31.2331 37.1823C31.2395 37.2187 31.2484 37.2677 31.2593 37.3284L31.2651 37.3608C31.2923 37.5117 31.3298 37.7207 31.3715 37.9627C31.4547 38.4452 31.5557 39.0647 31.6255 39.6218C31.6604 39.9 31.6882 40.1687 31.7018 40.4002C31.7145 40.6179 31.718 40.8476 31.6848 41.0238C31.6725 41.0891 31.6359 41.272 31.4885 41.4101C31.395 41.4976 31.2614 41.562 31.1036 41.5598C30.9616 41.5577 30.8534 41.5023 30.7894 41.4598C30.6704 41.3808 30.5858 41.2671 30.5312 41.1855C30.4682 41.0915 30.4038 40.9759 30.3371 40.8425C30.2136 40.5955 30.3137 40.2952 30.5607 40.1717C30.5984 40.1528 30.6374 40.1392 30.6768 40.1305C30.6649 40.01 30.6501 39.881 30.6333 39.7461C30.5663 39.212 30.4684 38.6104 30.386 38.1326C30.3449 37.8943 30.308 37.6882 30.2809 37.5379L30.2751 37.5057C30.2643 37.4453 30.2551 37.3945 30.2484 37.3563C30.248 37.3541 30.2475 37.3515 30.247 37.3485C30.2421 37.3214 30.2319 37.2641 30.2293 37.2276C30.154 36.1445 30.0882 35.0646 30.0225 33.9871C29.8781 31.6185 29.7345 29.2622 29.4927 26.9122ZM30.702 40.8388C30.699 40.8551 30.6978 40.8518 30.7025 40.8363C30.7023 40.8371 30.7022 40.838 30.702 40.8388ZM31.3865 40.6626C31.3869 40.6631 31.3872 40.6633 31.3872 40.6634Z" fill="black"/>
<path fill-rule="evenodd" clip-rule="evenodd" d="M24.8482 0.404507C24.9075 0.540538 24.9405 0.705437 24.962 0.877064C24.9962 1.15107 24.8018 1.40097 24.5278 1.43522C24.4543 1.44441 24.3825 1.43712 24.3161 1.41626C24.3065 1.44445 24.2971 1.47276 24.2879 1.50098C24.2272 1.68916 24.194 1.82824 24.1885 1.86628C23.2502 8.43499 20.9619 15.4128 15.2942 19.5348C13.5207 20.8246 10.7151 22.0704 7.97118 23.2394C7.61002 23.3933 7.24988 23.5458 6.89284 23.6971C4.50125 24.7102 2.24867 25.6644 0.757343 26.5592C0.520552 26.7012 0.213422 26.6244 0.0713499 26.3877C-0.0707222 26.1509 0.00606276 25.8437 0.242854 25.7017C1.79977 24.7675 4.12887 23.7813 6.50766 22.7741C6.86455 22.623 7.22255 22.4714 7.57924 22.3194C10.3498 21.1391 13.042 19.9362 14.706 18.726C20.0383 14.848 22.2715 8.21455 23.1986 1.72486C23.2167 1.59818 23.2723 1.39186 23.3364 1.19358C23.4025 0.988729 23.4924 0.746841 23.5934 0.548747C23.6425 0.452439 23.7062 0.342407 23.7854 0.249817C23.8386 0.187625 24.0199 -0.0143025 24.3118 0.000804371C24.652 0.0184045 24.8012 0.296371 24.8482 0.404507Z" fill="black"/>
<path fill-rule="evenodd" clip-rule="evenodd" d="M15.1908 27.1212C20.1377 28.8787 24.7361 31.7917 27.6944 35.5349C28.3119 36.3163 29.1188 37.3897 29.7823 38.5467C30.4388 39.6918 30.99 40.9777 31.0312 42.1743C31.0341 42.2581 31.029 42.3484 31.0255 42.4102C31.0249 42.4209 31.0243 42.4307 31.0238 42.4395C31.0236 42.4446 31.0233 42.4494 31.0231 42.4541C31.1985 42.5495 31.3067 42.7454 31.2804 42.9555C31.2462 43.2296 30.9963 43.4239 30.7223 43.3897C30.5394 43.3668 30.3546 43.2914 30.2163 43.1316C30.0866 42.9817 30.0455 42.8117 30.0306 42.6936C30.0159 42.577 30.0213 42.4618 30.0252 42.3872C30.0261 42.3705 30.0269 42.3554 30.0277 42.3416C30.031 42.2796 30.033 42.2432 30.0318 42.2087C29.9991 41.261 29.5482 40.1488 28.9148 39.0442C28.2883 37.9515 27.5174 36.9238 26.9098 36.155C24.0977 32.5968 19.6767 29.7762 14.856 28.0635C10.0353 26.3509 4.87076 25.7661 0.598154 26.6207C0.327374 26.6748 0.063962 26.4992 0.00980606 26.2284C-0.0443499 25.9576 0.131259 25.6942 0.402038 25.6401C4.89276 24.7419 10.244 25.3638 15.1908 27.1212Z" fill="black"/>
<path fill-rule="evenodd" clip-rule="evenodd" d="M69.0025 39.0249C68.8453 39.177 68.6736 39.3809 68.5771 39.6271C68.6724 39.557 68.7569 39.4731 68.83 39.378C68.9234 39.2565 68.9955 39.121 69.0512 38.979C69.0347 38.9942 69.0185 39.0095 69.0025 39.0249Z" fill="black"/>
<path d="M86.5001 30.1751C86.5001 29.8743 86.2509 29.6305 85.9434 29.6305C85.6483 29.6305 85.4068 29.8552 85.388 30.1392C85.3843 30.1455 85.3786 30.1546 85.3698 30.1666C85.3317 30.2188 85.2614 30.2918 85.1486 30.3823C84.9235 30.563 84.6019 30.7563 84.2448 30.9434C83.8925 31.128 83.5278 31.2953 83.2282 31.4279C83.138 31.4678 83.0476 31.5071 82.9636 31.5436C82.7936 31.6176 82.6496 31.6802 82.5852 31.714C81.7999 32.1261 81.0132 32.5372 80.226 32.9486L80.2198 32.9519C77.3709 34.4408 74.5158 35.9331 71.6955 37.4852C71.6209 37.5262 71.4918 37.5855 71.3078 37.6699L71.3029 37.6722C71.2255 37.7077 71.1384 37.7477 71.0417 37.7926C70.7323 37.9363 70.3577 38.1159 69.9993 38.3188C69.6668 38.5069 69.3218 38.7295 69.0512 38.979C68.9955 39.121 68.9234 39.2565 68.83 39.378C68.7569 39.4731 68.6724 39.557 68.5771 39.6271C68.5149 39.7858 68.484 39.9621 68.5085 40.1533C68.5466 40.4518 68.8248 40.6635 69.1299 40.6262C69.4319 40.5893 69.6471 40.322 69.6143 40.027C69.6171 40.0164 69.6368 39.9431 69.7853 39.7994C69.9619 39.6286 70.2326 39.4451 70.5567 39.2617C70.8752 39.0815 71.217 38.9169 71.5191 38.7766C71.5902 38.7436 71.6618 38.7108 71.7316 38.6788C71.9381 38.584 72.1282 38.4968 72.2413 38.4346C75.05 36.8888 77.8911 35.4039 80.7384 33.9158C81.5291 33.5025 82.3203 33.089 83.1115 32.6739C83.1121 32.6736 83.1162 32.6714 83.1255 32.667C83.1355 32.6623 83.1485 32.6564 83.1651 32.6489C83.1984 32.6338 83.241 32.6152 83.2933 32.5924L83.3735 32.5575C83.4632 32.5185 83.5702 32.4721 83.687 32.4204C83.9957 32.2837 84.3862 32.1049 84.7704 31.9036C85.1499 31.7048 85.5461 31.4722 85.8548 31.2244C86.009 31.1007 86.1596 30.9587 86.2755 30.8C86.3891 30.6445 86.5001 30.4307 86.5001 30.1751Z" fill="black"/>
</g>
<defs>
<clipPath id="clip0_42_355">
<rect width="88" height="44" fill="white"/>
</clipPath>
</defs>
</svg>
