<svg width="235" height="163" viewBox="0 0 235 163" fill="none" xmlns="http://www.w3.org/2000/svg">
<path d="M9.52188 8.22128C9.47528 8.51478 9.43225 8.96294 9.43225 9.19264C9.43225 14.2149 10.0582 18.9706 10.819 23.9018C11.7777 30.1151 11.8713 36.5432 12.1376 42.8167C12.4482 50.1324 12.706 57.5127 12.706 64.8349C12.706 67.959 12.7371 71.0804 12.7887 74.2C14.0874 83.662 15.415 93.1214 16.298 102.631C17.4824 115.385 16.7982 128.388 16.7982 141.188C16.7982 142.163 16.6407 145.674 16.6833 147.323C18.0359 147.361 19.39 147.433 20.7434 147.494C22.9874 147.51 25.2314 147.544 27.4747 147.552C27.7845 147.553 28.0943 147.554 28.404 147.554C34.616 147.554 40.8195 147.244 47.0348 147.417C52.8147 147.579 58.5478 148.325 64.3356 148.384C77.0691 148.512 89.8772 148.216 102.597 148.895C108.43 149.207 114.252 149.912 120.08 150.316C125.487 150.69 130.963 150.466 136.381 150.6C156.603 151.102 176.705 153.342 196.888 150.532C200.929 149.969 205.015 150.083 209.074 149.736C210.782 149.59 212.53 149.418 214.246 149.418C216.311 149.418 218.348 148.971 220.411 148.831C220.45 145.637 220.503 142.435 220.339 139.256C220.063 133.907 219.422 128.599 219.156 123.251C218.232 104.647 219.156 85.9197 219.156 67.3015C219.156 57.6545 218.522 47.9234 219.202 38.2925C219.513 33.8934 219.79 29.4838 220.339 25.1066C220.408 24.5513 220.486 23.9967 220.569 23.4427C220.452 20.184 220.317 16.9251 220.241 13.6623C220.218 12.6975 220.201 11.7324 220.19 10.7668C211.241 12.6305 201.32 10.7746 192.103 10.693C188.105 10.6576 184.225 11.6261 180.258 11.7047C178.291 11.7436 176.318 11.7394 174.341 11.6991C166.093 11.5309 157.786 10.7348 149.635 9.8291C140.8 8.8475 132.036 7.9227 123.172 7.30559C111.499 6.49288 99.7956 6.23623 88.1158 5.53232C67.9451 4.31667 47.8745 5.37007 27.7107 6.8168C21.7181 7.24676 15.6526 8.08289 9.6342 8.21882C9.59676 8.21967 9.55932 8.22048 9.52188 8.22128Z" fill="white"/>
<path d="M9.63687 8.44241C9.63687 8.35541 9.63594 8.28127 9.6342 8.21882M12.9106 148.19C13.842 148.889 13.5241 146.051 13.5358 145.53C13.6027 142.555 13.7084 139.57 13.8313 136.596C14.1751 128.277 13.8438 119.877 13.7177 111.554C13.5288 99.0881 12.995 86.658 12.7887 74.2M8.20459 12.1252C8.99236 12.8145 8.44452 17.3114 8.45467 17.9452C8.61198 27.7686 8.74315 37.6156 9.59139 47.4089C10.3676 56.3707 11.5653 65.2865 12.7887 74.2M16.7982 148.19C16.7314 148.19 16.697 147.853 16.6833 147.323M9.43225 148.599C9.3103 147.502 10.6771 147.498 11.6602 147.417C13.3296 147.28 15.0053 147.276 16.6833 147.323M214.246 147.372C212.72 148.287 210.881 148.268 209.108 148.509C203.607 149.256 197.663 150.662 192.103 150.396C182.474 149.934 172.785 149.75 163.185 148.884C151.426 147.823 139.787 146.113 127.992 145.337C115.607 144.523 103.365 142.663 90.9348 143.575C83.7323 144.104 76.5812 144.958 69.3599 145.28C63.1931 145.556 57.0203 145.666 50.8542 145.962C43.0534 146.337 35.2798 147.288 27.4747 147.552M12.9106 148.395C12.9106 148.011 12.7952 147.595 13.297 147.576C15.7785 147.485 18.261 147.478 20.7434 147.494M223.658 147.576C223.924 147.776 225.383 148.497 224.363 148.6C223.211 148.715 222.051 148.755 220.896 148.804C220.734 148.811 220.572 148.82 220.411 148.831M222.021 8.85158V7.12377C222.021 9.58322 222.106 12.06 221.885 14.5124C221.614 17.5064 221.016 20.4672 220.569 23.4427M220.384 152.282C220.384 151.134 220.397 149.983 220.411 148.831M221.202 9.46532C221.096 8.40436 220.179 6.24242 220.179 8.81739C220.179 9.46742 220.183 10.1172 220.19 10.7668M222.021 155.352C222.126 155.562 222.44 152.687 222.531 151.85L222.544 151.737C222.738 149.968 222.787 148.21 222.93 146.44C223.525 139.075 223.52 131.706 223.442 124.319C223.343 115.004 222.477 105.737 222.226 96.4355C222.014 88.6064 222.049 80.6111 221.157 72.8259C219.652 59.6901 220.793 46.7255 220.793 33.5523C220.793 30.1798 220.691 26.8113 220.569 23.4427M11.6829 10.0791C11.4445 10.0791 12.4104 9.9086 12.5468 9.8745C17.8831 8.54042 23.4532 8.11275 28.9156 7.63517C41.0852 6.57116 53.4256 6.86972 65.6315 7.02134C75.5327 7.14434 85.4409 8.58019 95.3225 9.1811C106.544 9.86349 117.792 10.2761 129.003 11.1022C139.738 11.8932 150.692 11.9503 161.457 11.9206C165.734 11.9088 170.05 11.8928 174.341 11.6991M230.001 7.82841C230.646 8.04355 227.335 8.30944 226.909 8.36267C222.674 8.89206 218.522 9.63245 214.246 9.8745C204.994 10.3982 195.691 10.0137 186.442 10.5793C183.945 10.7319 181.496 11.2073 179.008 11.4091C177.457 11.5348 175.901 11.6287 174.341 11.6991M8 8.2377C8.5069 8.2377 9.01422 8.232 9.52188 8.22128M221.407 10.4884C221.004 10.5893 220.598 10.6819 220.19 10.7668M117.466 82.7155C118.274 82.3114 118.854 81.7533 119.535 81.1468C122.306 78.6784 125.138 76.2906 128.083 74.031C134.727 68.9316 141.107 63.4597 148.362 59.2309C155.101 55.3029 161.093 50.5847 167.595 46.3405C173.625 42.4048 180.405 39.5454 186.612 35.86C192.102 32.6004 197.543 29.5856 202.481 25.5159C206.132 22.5065 209.477 19.3894 213.575 16.9678C215.717 15.7023 218.088 14.8844 220.241 13.6623M224.272 10.6931C224.272 11.9197 221.456 12.9439 220.577 13.4667C220.466 13.5331 220.354 13.5983 220.241 13.6623M118.284 81.0785C118.639 81.0785 115.99 79.0563 115.988 79.0551C108.753 74.0041 103.268 67.1081 96.3228 61.7543C92.3714 58.7084 87.8605 56.3652 83.6598 53.6836C80.2145 51.4842 76.8605 49.1677 73.4862 46.8633C65.3198 41.2863 56.1279 37.5162 47.2849 33.2C38.4296 28.8778 30.7452 22.9816 22.2089 18.0703C19.0922 16.2771 15.7811 15.0643 12.831 12.9664C12.2284 12.5379 11.4724 12.281 11.1828 11.5797C11.0678 11.3012 10.4709 9.63879 10.2507 10.0792M9.52188 8.22128C9.47528 8.51478 9.43225 8.96294 9.43225 9.19264C9.43225 14.2149 10.0582 18.9706 10.819 23.9018C11.7777 30.1151 11.8713 36.5432 12.1376 42.8167C12.4482 50.1324 12.706 57.5127 12.706 64.8349C12.706 67.959 12.7371 71.0804 12.7887 74.2M9.52188 8.22128C9.55932 8.22048 9.59676 8.21967 9.6342 8.21882M9.52188 8.22128C9.57004 7.91793 9.622 7.7798 9.6342 8.21882M12.7887 74.2C14.0874 83.662 15.415 93.1214 16.298 102.631C17.4824 115.385 16.7982 128.388 16.7982 141.188C16.7982 142.163 16.6407 145.674 16.6833 147.323M16.6833 147.323C18.0359 147.361 19.39 147.433 20.7434 147.494M20.7434 147.494C22.9874 147.51 25.2314 147.544 27.4747 147.552M20.7434 147.494C22.4051 147.57 24.0657 147.632 25.7214 147.599C26.306 147.588 26.8905 147.572 27.4747 147.552M27.4747 147.552C27.7845 147.553 28.0943 147.554 28.404 147.554C34.616 147.554 40.8195 147.244 47.0348 147.417C52.8147 147.579 58.5478 148.325 64.3356 148.384C77.0691 148.512 89.8772 148.216 102.597 148.895C108.43 149.207 114.252 149.912 120.08 150.316C125.487 150.69 130.963 150.466 136.381 150.6C156.603 151.102 176.705 153.342 196.888 150.532C200.929 149.969 205.015 150.083 209.074 149.736C210.782 149.59 212.53 149.418 214.246 149.418C216.311 149.418 218.348 148.971 220.411 148.831M220.411 148.831C220.45 145.637 220.503 142.435 220.339 139.256C220.063 133.907 219.422 128.599 219.156 123.251C218.232 104.647 219.156 85.9197 219.156 67.3015C219.156 57.6545 218.522 47.9234 219.202 38.2925C219.513 33.8934 219.79 29.4838 220.339 25.1066C220.408 24.5513 220.486 23.9967 220.569 23.4427M220.569 23.4427C220.452 20.184 220.317 16.9251 220.241 13.6623M220.241 13.6623C220.218 12.6975 220.201 11.7324 220.19 10.7668M220.19 10.7668C211.241 12.6305 201.32 10.7746 192.103 10.693C188.105 10.6576 184.225 11.6261 180.258 11.7047C178.291 11.7436 176.318 11.7394 174.341 11.6991M174.341 11.6991C166.093 11.5309 157.786 10.7348 149.635 9.8291C140.8 8.8475 132.036 7.9227 123.172 7.30559C111.499 6.49288 99.7956 6.23623 88.1158 5.53232C67.9451 4.31667 47.8745 5.37007 27.7107 6.8168C21.7181 7.24676 15.6526 8.08289 9.6342 8.21882" stroke="black" stroke-linecap="round"/>
<path d="M119.716 94.5394C119.39 94.1928 118.913 94.0984 118.745 94.5314C119.389 95.2889 120.245 96.0441 120.171 95.8125C120.026 95.3588 119.52 95.1571 119.262 94.744C118.821 94.038 120.125 94.9735 119.716 94.5394Z" fill="#D9D9D9"/>
<path d="M101.535 65.4291C101.226 66.084 100.974 66.7593 100.779 67.4174C100.63 67.9184 100.509 68.4052 100.421 68.8795C100.269 70.2933 100.409 71.776 100.748 73.2493C101.21 75.2616 102.043 77.2566 103.011 79.0356C105.022 81.4574 107.569 83.5946 109.668 85.5367C110.029 85.8712 110.386 86.2107 110.739 86.5541C112.598 88.1591 114.462 89.7604 116.293 91.3975C116.703 89.503 119.307 87.0291 120.66 85.764C123.292 83.3025 126.304 81.2652 129.154 79.0568C129.597 78.7133 130.036 78.3657 130.47 78.0116C133.008 75.9382 135.013 73.587 135.52 70.4937C135.611 69.9366 135.654 69.3554 135.642 68.7474C135.588 65.9277 134.69 63.312 132.3 61.6429C128.123 58.7255 123.508 62.3179 121.035 65.826C120.814 66.1398 119.418 68.1622 118.396 69.7562C118.135 70.1638 117.898 70.5434 117.712 70.8592C117.801 70.9635 117.871 71.0342 117.929 71.0714C118.03 70.8704 118.142 70.6839 118.284 70.6002C118.159 71.0174 118.091 71.176 117.929 71.0714C117.725 71.4789 117.568 71.946 117.307 71.737C117.251 71.6928 117.42 71.3543 117.712 70.8592C117.692 70.8353 117.67 70.8096 117.648 70.7821C116.601 69.5025 115.53 68.1709 114.356 66.9568C113.476 66.0468 112.538 65.2028 111.509 64.496C108.309 62.2972 103.982 62.7797 101.535 65.4291Z" fill="#ECD5E5"/>
<path d="M118.693 71.214C118.668 70.7331 118.563 70.2443 118.396 69.7562M116.647 88.4012C117.035 89.9534 116.369 88.2938 115.943 87.7305C114.433 85.7379 112.448 84.0899 110.534 82.5009L110.452 82.4334C107.783 80.2174 104.861 78.1851 102.427 75.704C101.647 74.9088 101.099 74.0952 100.748 73.2493M116.238 91.8796C116.238 91.7241 116.257 91.563 116.293 91.3975M118.898 71.0094C117.867 70.8805 123.556 64.4482 123.945 64.1095C125.389 62.8521 128.007 60.7708 130.117 61.1995C132.215 61.6256 133.586 64.7207 134.05 66.5194C135.332 71.4799 132.232 75.5084 129.154 79.0568M117.466 94.9486C120.376 89.614 124.066 84.8719 128.06 80.3077C128.419 79.8971 128.786 79.4804 129.154 79.0568M117.67 93.721C115.32 91.3708 113.12 88.8735 110.739 86.5541M133.834 75.5107C133.505 75.5107 133.338 75.621 133.096 75.8631C131.252 77.7065 129.611 79.8553 127.946 81.8536C124.719 85.7283 121.976 89.9421 118.898 93.9255M100.279 76.9431C103.579 80.3504 107.152 83.4593 110.739 86.5541M117.057 92.0842C116.803 91.8545 116.548 91.6257 116.293 91.3975M116.647 71.214C116.452 72.5815 115.389 68.7532 114.704 67.5537C114.591 67.3565 114.475 67.1571 114.356 66.9568M117.261 92.0841C113.203 89.3786 108.165 86.3463 105.189 82.422C104.451 81.4488 103.697 80.2965 103.011 79.0356M135.676 73.4646C135.593 74.3781 134.922 75.2725 134.471 76.0108C132.751 78.8293 130.893 81.4908 128.765 84.0133C125.525 87.8542 122.511 91.8699 119.103 95.5624M135.267 74.4877C135.267 73.1047 135.602 71.8873 135.52 70.4937M135.471 69.9863C135.494 70.1583 135.51 70.3273 135.52 70.4937M118.693 94.744C118.704 94.6624 118.721 94.5918 118.745 94.5314M118.745 94.5314C118.913 94.0984 119.39 94.1928 119.716 94.5394C120.125 94.9735 118.821 94.038 119.262 94.744C119.52 95.1571 120.026 95.3588 120.171 95.8125C120.245 96.0441 119.389 95.2889 118.745 94.5314ZM118.745 94.5314C118.422 94.1525 118.153 93.7731 118.08 93.5164M101.535 65.4291C101.226 66.084 100.974 66.7593 100.779 67.4174C100.63 67.9184 100.509 68.4052 100.421 68.8795M101.535 65.4291C103.982 62.7797 108.309 62.2972 111.509 64.496C112.538 65.2028 113.476 66.0468 114.356 66.9568M101.535 65.4291C100.813 66.2108 100.255 67.1811 99.9376 68.3268C98.7896 72.4697 100.474 75.9793 103.011 79.0356M101.535 65.4291C102.749 62.8611 104.853 60.6051 107.94 60.9154C110.143 61.1368 112.234 62.3505 113.874 63.7799C115.438 65.1441 117.607 67.4423 118.396 69.7562M100.421 68.8795C100.269 70.2933 100.409 71.776 100.748 73.2493M100.421 68.8795C100.126 70.4567 100.185 71.8944 100.748 73.2493M100.421 68.8795C100.566 67.5213 100.98 66.2265 101.745 65.0643C103.215 62.8302 106.006 61.4342 108.69 61.9611C111.324 62.4779 113.05 64.7652 114.356 66.9568M100.748 73.2493C101.21 75.2616 102.043 77.2566 103.011 79.0356M103.011 79.0356C105.022 81.4574 107.569 83.5946 109.668 85.5367C110.029 85.8712 110.386 86.2107 110.739 86.5541M110.739 86.5541C112.598 88.1591 114.462 89.7604 116.293 91.3975M116.293 91.3975C116.703 89.503 119.307 87.0291 120.66 85.764C123.292 83.3025 126.304 81.2652 129.154 79.0568M129.154 79.0568C129.597 78.7133 130.036 78.3657 130.47 78.0116C133.008 75.9382 135.013 73.587 135.52 70.4937M135.52 70.4937C135.611 69.9366 135.654 69.3554 135.642 68.7474C135.588 65.9277 134.69 63.312 132.3 61.6429C128.123 58.7255 123.508 62.3179 121.035 65.826C120.814 66.1398 119.418 68.1622 118.396 69.7562M118.396 69.7562C118.135 70.1638 117.898 70.5434 117.712 70.8592M117.712 70.8592C117.801 70.9635 117.871 71.0342 117.929 71.0714M117.712 70.8592C117.42 71.3543 117.251 71.6928 117.307 71.737C117.568 71.946 117.725 71.4789 117.929 71.0714M117.712 70.8592C117.692 70.8353 117.67 70.8096 117.648 70.7821C116.601 69.5025 115.53 68.1709 114.356 66.9568M117.929 71.0714C118.03 70.8704 118.142 70.6839 118.284 70.6002C118.159 71.0174 118.091 71.176 117.929 71.0714Z" stroke="black" stroke-linecap="round"/>
</svg>
