<svg width="187" height="9" viewBox="0 0 187 9" fill="none" xmlns="http://www.w3.org/2000/svg">
<path d="M48.7461 0.34375L49.5156 0.382812C50.3883 0.426074 51.1172 1.13676 51.7344 2.14062L52.5078 3.39844L53.2773 4.65625L53.6953 5.24219C54.0854 5.70116 54.3882 5.79573 54.5938 5.76562L55.3672 5.65234L56.1406 5.53516L56.5547 5.45703C56.9704 5.36179 57.3895 5.21589 57.8125 5.01562L58.5859 4.64844L59.3594 4.28516L59.8945 4.08203C60.4326 3.93122 60.9802 3.93306 61.5273 4.09375L63.0742 4.54688L63.3516 4.58203C63.6428 4.57127 63.9811 4.41224 64.3828 3.98047L65.1523 3.14844L65.9258 2.31641L66.2031 2.05859C66.4946 1.82261 66.8279 1.66978 67.1992 1.66797C67.6934 1.66616 68.1198 1.93281 68.4727 2.30859L69.2461 3.12891L70.0156 3.95312L70.1992 4.12891C70.3728 4.27332 70.518 4.32855 70.6289 4.34375C70.7628 4.36189 70.9316 4.32986 71.1562 4.15234L71.9297 3.53906L72.7031 2.92969L73.207 2.57812C73.7185 2.26756 74.2511 2.08538 74.8008 2.05469L75.5703 2.01172L76.3438 1.96875C77.0779 1.92775 77.7889 2.15818 78.4648 2.61328L80.0117 3.65234L80.8789 4.17969C81.1666 4.33589 81.453 4.47225 81.7383 4.58984L83.2852 5.23047L84.168 5.57031C84.4635 5.67667 84.7595 5.77646 85.0547 5.86719L85.8281 6.10156L86.6016 6.33984L87.0117 6.44922C87.4208 6.5363 87.8293 6.56326 88.2344 6.53516L89.0039 6.48047L89.7773 6.42969C90.3425 6.39048 90.9106 6.28347 91.4805 6.10938L92.2539 5.87109L93.0273 5.63672L93.3906 5.48047C93.7631 5.27759 94.1686 4.92841 94.5977 4.39062L95.3672 3.41797L96.1406 2.44922L96.3906 2.16016C96.9889 1.52257 97.6874 1.1737 98.4648 1.36328L100.012 1.73828L100.945 1.99219C101.255 2.08518 101.565 2.18677 101.875 2.29688L102.648 2.57031L103.422 2.84766L104.371 3.23438C104.687 3.38052 105.002 3.54357 105.316 3.72266L106.086 4.16406L106.859 4.60547L107.715 5.02734C107.997 5.14504 108.276 5.24226 108.555 5.31641L109.328 5.51953L110.102 5.72656L110.48 5.80078C110.861 5.84537 111.243 5.80119 111.629 5.67188L113.176 5.15625L113.477 5.07812C114.176 4.94796 114.85 5.18055 115.465 5.6875L116.238 6.32422L117.012 6.96484L117.184 7.05469C117.201 7.05607 117.243 7.05539 117.32 7.00391C117.502 6.88195 117.76 6.56116 118.055 5.92188L118.824 4.25L119.598 2.57422L119.84 2.10156C120.092 1.65586 120.383 1.30127 120.73 1.12109C120.987 0.98826 121.273 0.951963 121.559 1.03906C121.828 1.1218 122.056 1.30082 122.242 1.51172L123.789 3.26172L124.168 3.62109C124.286 3.71015 124.396 3.77043 124.496 3.80859C124.685 3.87998 124.863 3.88256 125.051 3.8125L126.598 3.23438L126.887 3.14453C127.557 2.97956 128.221 3.11024 128.852 3.50391L129.625 3.98828L130.398 4.46875L132.234 5.68359L133.008 6.22266L133.777 6.76562L133.91 6.83984C134.032 6.89401 134.129 6.88704 134.223 6.85156C134.386 6.7893 134.616 6.60627 134.895 6.19922L135.668 5.07031L136.441 3.94531L136.93 3.31641C137.441 2.75259 138.015 2.39905 138.66 2.39062L139.434 2.37891L140.207 2.37109C140.868 2.36279 141.526 2.46463 142.18 2.67578L143.727 3.17578L144.207 3.34766C144.688 3.5353 145.166 3.76976 145.641 4.05078L146.414 4.51172L147.188 4.96875L147.574 5.16406C147.957 5.32217 148.325 5.36972 148.684 5.32422L149.457 5.22656L150.23 5.125L150.598 5.04688C150.972 4.93058 151.367 4.70534 151.781 4.34766L153.328 3.01172L153.605 2.80078C153.892 2.61243 154.205 2.4981 154.539 2.48438C154.989 2.46613 155.403 2.63666 155.773 2.92578L156.547 3.52734L157.32 4.13281L157.75 4.44531C158.174 4.73426 158.592 4.95623 159.004 5.11328L159.777 5.40625L160.551 5.70312L160.855 5.77344C161.165 5.80167 161.496 5.69405 161.871 5.38672L162.645 4.75L163.414 4.11719L163.695 3.91797C163.98 3.73914 164.286 3.62637 164.613 3.60938C165.053 3.58679 165.467 3.73659 165.84 4.00391L166.613 4.55859L167.383 5.11328L167.672 5.25781C167.757 5.2797 167.833 5.27926 167.902 5.26562C168.059 5.23455 168.273 5.1164 168.535 4.82422L170.082 3.10547L170.578 2.61328C171.088 2.17474 171.636 1.89876 172.219 1.83984L172.988 1.76172L173.762 1.68359L174.266 1.66016C174.766 1.65771 175.265 1.72702 175.762 1.86719L176.535 2.08203L177.309 2.30078L178.262 2.62109C178.577 2.74329 178.893 2.88077 179.207 3.03516L179.98 3.41797L180.754 3.79688L181.25 4.07422C181.745 4.38362 182.231 4.78448 182.707 5.27344L183.477 6.07031L184.25 6.86328L184.566 7.12891C184.573 7.13311 184.58 7.13731 184.586 7.14062C184.603 7.11079 184.633 7.06844 184.656 7L184.934 6.17578L185.441 4.36328L185.547 4H186.023V4.52734L186.406 4.63672L185.895 6.45703L185.887 6.48047L185.605 7.32031C185.479 7.69691 185.21 8.14184 184.676 8.16406C184.443 8.17356 184.231 8.09284 184.055 7.98828C183.966 7.93569 183.879 7.87225 183.793 7.80078L183.535 7.5625L182.762 6.76562L181.988 5.97266C181.557 5.52894 181.135 5.18004 180.723 4.92188L180.312 4.69531L179.539 4.3125L178.766 3.93359C178.476 3.7913 178.187 3.66615 177.898 3.55469L177.035 3.26562L176.266 3.04688L175.492 2.82812C175.083 2.71249 174.675 2.65808 174.27 2.66016L173.863 2.67969L172.316 2.83594C171.992 2.86898 171.631 3.02987 171.234 3.37109L170.824 3.77344L170.051 4.63281L169.277 5.49609C168.936 5.87601 168.545 6.15749 168.098 6.24609C167.748 6.31532 167.412 6.25676 167.102 6.10547L166.801 5.92578L165.254 4.81641C165.023 4.6511 164.829 4.60091 164.664 4.60938C164.58 4.61388 164.489 4.63542 164.387 4.67969L164.051 4.89062L163.277 5.52344L162.504 6.16016C161.883 6.66855 161.199 6.89016 160.496 6.73047L160.195 6.63672L159.422 6.34375L158.648 6.04688C158.154 5.85832 157.666 5.59815 157.184 5.26953L156.703 4.92188L155.934 4.31641L155.16 3.71094C154.926 3.52826 154.737 3.47466 154.582 3.48047C154.503 3.48368 154.413 3.50566 154.312 3.55078L153.98 3.76953L152.434 5.10547C151.941 5.52988 151.427 5.83429 150.895 6L150.355 6.11719L149.582 6.21875L148.809 6.31641C148.261 6.3857 147.723 6.30494 147.199 6.08984L146.68 5.82812L145.133 4.91406C144.845 4.7437 144.559 4.59155 144.273 4.46094L143.418 4.12891L142.645 3.87891L141.875 3.62891C141.319 3.44912 140.766 3.36416 140.219 3.37109L139.445 3.37891L138.672 3.39062C138.41 3.39456 138.078 3.54485 137.684 3.97656L137.266 4.50781L135.719 6.76562C135.393 7.24115 135.019 7.617 134.578 7.78516C134.217 7.92253 133.859 7.90623 133.527 7.76562L133.207 7.58203L131.66 6.50391L129.867 5.31641L129.094 4.83594L128.32 4.35156C127.955 4.12336 127.615 4.0427 127.281 4.08594L126.949 4.16797L125.402 4.74609C124.987 4.90168 124.56 4.90279 124.145 4.74609C123.843 4.6318 123.56 4.43951 123.297 4.19141L123.039 3.92578L121.492 2.17578C121.376 2.04486 121.298 2.00602 121.266 1.99609C121.25 1.99141 121.235 1.98942 121.191 2.01172C121.086 2.06652 120.92 2.22705 120.719 2.57812L120.508 2.99219L118.961 6.34375C118.651 7.0144 118.302 7.55246 117.879 7.83594C117.654 7.98663 117.393 8.07623 117.109 8.05469C116.969 8.04385 116.837 8.00442 116.715 7.94922L116.375 7.73438L114.828 6.46094C114.449 6.14768 114.114 6.02673 113.801 6.04297L113.492 6.10156L112.719 6.36328L111.945 6.62109C111.424 6.79574 110.897 6.85357 110.371 6.79297L109.844 6.69141L109.07 6.48828L108.297 6.28125C107.809 6.15137 107.324 5.96804 106.844 5.73047L106.363 5.47266L105.594 5.03125L104.82 4.59375C104.53 4.42796 104.238 4.27834 103.949 4.14453L103.086 3.78906L102.312 3.51562L101.539 3.23828C101.245 3.13361 100.95 3.03738 100.656 2.94922L99.7734 2.71094L99 2.51953L98.2305 2.33203C97.9894 2.27319 97.6872 2.32597 97.3164 2.65234L96.9219 3.07422L96.1523 4.04297L95.3789 5.01172C94.9015 5.61018 94.3975 6.07385 93.8633 6.36328L93.3203 6.59375L92.5469 6.82812L91.7734 7.06641C91.4539 7.16403 91.1332 7.24062 90.8125 7.30078L89.8477 7.42578L88.3008 7.53516C87.799 7.56986 87.2985 7.53201 86.8008 7.42578L86.3047 7.29688L85.5312 7.05859L84.7617 6.82031C84.4521 6.72514 84.1413 6.62297 83.832 6.51172L82.9023 6.15234L82.1289 5.83594L81.3555 5.51562C81.0363 5.384 80.7191 5.23057 80.4023 5.05859L79.4531 4.48438L78.6797 3.96484L77.9062 3.44141C77.3742 3.08335 76.8765 2.93878 76.4023 2.96484L75.6289 3.00781L74.8555 3.05469C74.4977 3.07467 74.1225 3.19315 73.7266 3.43359L73.3242 3.71484L72.5508 4.32422L71.7773 4.9375C71.3981 5.23726 70.9626 5.4004 70.4922 5.33594C70.1496 5.28898 69.8387 5.12799 69.5586 4.89453L69.2891 4.63672L68.5156 3.81641L67.7422 2.99219C67.4911 2.7248 67.3131 2.66767 67.2031 2.66797C67.1203 2.66837 66.9979 2.70171 66.8359 2.83203L66.6602 3L65.8867 3.82812L65.1133 4.66016C64.4402 5.38359 63.6508 5.75943 62.793 5.50781L61.2461 5.05469C60.8869 4.9491 60.5283 4.94283 60.1602 5.04688L59.7852 5.1875L59.0156 5.55469L58.2422 5.92188C57.758 6.15115 57.2689 6.32105 56.7773 6.43359L56.2852 6.52734L54.7383 6.75391C53.92 6.87374 53.2338 6.34234 52.6641 5.53906L52.4258 5.17969L51.6523 3.92188L50.8828 2.66406C50.2909 1.70134 49.8056 1.39991 49.4688 1.38281L47.9219 1.30469C47.7841 1.29803 47.6029 1.34892 47.3672 1.55078C47.2465 1.65442 47.1177 1.79376 46.9844 1.96875L46.5664 2.60938L45.7969 3.97656L45.0234 5.33984C44.7095 5.8945 44.3285 6.35651 43.8438 6.52344C43.421 6.66827 43.0318 6.56257 42.707 6.32812L42.4062 6.05469L40.8594 4.38281C40.6203 4.12463 40.4879 4.13154 40.4297 4.14453C40.3494 4.16252 40.2109 4.23712 40.0273 4.45703L39.832 4.72266L38.2852 7.08984C37.9618 7.5841 37.5896 7.97577 37.1523 8.16016C36.6729 8.36178 36.1924 8.28232 35.7695 7.99219L34.9961 7.46094L34.2227 6.93359C33.9767 6.76495 33.7549 6.68544 33.5547 6.66797C33.4561 6.65954 33.3551 6.66517 33.25 6.6875L32.9219 6.80469L32.1484 7.20312L31.375 7.59766C30.9569 7.81152 30.5108 7.848 30.0703 7.6875C29.7548 7.5722 29.4642 7.36532 29.1992 7.09375L28.9414 6.80078L28.1719 5.84375L27.3984 4.88281C26.8274 4.17323 26.3085 3.81758 25.8555 3.70703L24.3086 3.33203C24.1827 3.30141 24.0314 3.31808 23.8203 3.47656C23.7082 3.56084 23.5859 3.6791 23.457 3.83984L23.0469 4.45703L21.5 7.15234C21.3335 7.44265 21.1462 7.69554 20.9258 7.87109C20.6966 8.05355 20.4086 8.16983 20.0859 8.12109C19.7786 8.07419 19.5292 7.8886 19.3359 7.67578C19.2387 7.56852 19.1469 7.44378 19.0586 7.30469L18.8047 6.84375L18.0312 5.26172L17.2578 3.67578C16.9621 3.06991 16.7223 2.83073 16.5859 2.76562C16.5415 2.74455 16.5199 2.74648 16.4961 2.75391C16.4772 2.75982 16.4487 2.7737 16.4102 2.80078L16.2617 2.93359L15.4883 3.78516L14.7188 4.63281C14.0693 5.34769 13.3534 5.80766 12.5742 5.875L11.8047 5.94141L11.0312 6.00781C10.3668 6.06524 9.7021 6.00451 9.04297 5.82812L7.49609 5.41406C6.94485 5.26675 6.39749 5.21303 5.85156 5.25391L4.30469 5.37109C3.64606 5.42059 2.71333 5.359 1.53125 5.19922L0.0585938 5H0V4H0.132812L0.167969 4.00391L1.66797 4.20703C2.8324 4.36438 3.6797 4.41639 4.23047 4.375L5.00391 4.31641L5.77344 4.25781C6.4361 4.20801 7.10049 4.27332 7.75781 4.44922L8.52734 4.65625L9.30078 4.86328C9.85125 5.01058 10.4002 5.05883 10.9453 5.01172L11.7188 4.94531L12.4883 4.87891C12.9187 4.84171 13.4164 4.57751 13.9766 3.96094L14.75 3.11328L15.5234 2.26172L15.832 1.98438C15.9435 1.90561 16.0641 1.84212 16.1953 1.80078C16.4739 1.71357 16.7577 1.73698 17.0156 1.85938C17.4838 2.08171 17.848 2.60658 18.1562 3.23828L18.9297 4.82422L19.7031 6.40625L19.9023 6.76953C19.9649 6.86816 20.0245 6.94491 20.0781 7.00391C20.175 7.1105 20.227 7.13082 20.2344 7.13281C20.2149 7.13024 20.2303 7.14551 20.3008 7.08984C20.3823 7.02497 20.4974 6.89216 20.6328 6.65625L21.4062 5.30469L22.1797 3.95703L22.4219 3.5625C22.6699 3.19111 22.9344 2.8895 23.2188 2.67578C23.6124 2.38025 24.068 2.24286 24.5469 2.35938L25.3164 2.54688L26.0898 2.73438C26.8458 2.91829 27.5379 3.46167 28.1758 4.25391L29.7227 6.17578L30.1016 6.5625C30.2162 6.65457 30.3183 6.7163 30.4102 6.75C30.5736 6.80973 30.7323 6.80167 30.918 6.70703L32.4648 5.91797L32.75 5.79297C33.0392 5.68836 33.3391 5.64523 33.6445 5.67188C34.048 5.70731 34.4311 5.86022 34.7891 6.10547L36.3359 7.16797C36.5173 7.29229 36.6408 7.29091 36.7656 7.23828C36.9327 7.1677 37.1684 6.97232 37.4492 6.54297L38.9961 4.17578L39.25 3.82812C39.5209 3.50046 39.8371 3.25168 40.2109 3.16797C40.7575 3.04564 41.2289 3.31237 41.5938 3.70703L43.1406 5.37891L43.2891 5.51562C43.4185 5.61134 43.4883 5.58882 43.5195 5.57812C43.6391 5.53632 43.8632 5.35859 44.1523 4.84766L44.9258 3.48438L45.6992 2.11719L45.9375 1.71875C46.1831 1.34024 46.4421 1.02717 46.7148 0.792969C47.0826 0.477474 47.5064 0.285477 47.9727 0.308594L48.7461 0.34375Z" fill="#607023"/>
</svg>
